<svg width="30" height="30" viewBox="0 0 30 30" fill="none" xmlns="http://www.w3.org/2000/svg">
<path d="M14.5462 20.8705L9.549 24.6765C9.31216 24.8569 9.03068 24.9667 8.736 24.9935C8.44133 25.0204 8.14514 24.9633 7.88058 24.8286C7.61601 24.6939 7.39351 24.4869 7.23798 24.2309C7.08245 23.9748 7.00004 23.6798 7 23.3788V8.243C7 7.38299 7.33576 6.55819 7.93346 5.95001C8.53116 5.34183 9.34182 5.00011 10.1872 5H20.8128C21.6581 5.00011 22.4688 5.34183 23.0665 5.95001C23.6642 6.55819 24 7.38299 24 8.243V23.3784C24 23.6794 23.9175 23.9744 23.762 24.2305C23.6065 24.4865 23.384 24.6934 23.1194 24.8281C22.8549 24.9629 22.5587 25.02 22.264 24.9931C21.9693 24.9662 21.6878 24.8565 21.451 24.6761L16.4566 20.8705C16.1809 20.6605 15.8458 20.547 15.5014 20.547C15.157 20.547 14.8219 20.6605 14.5462 20.8705Z" stroke="#79A471" stroke-width="1.5" stroke-linecap="round" stroke-linejoin="round"/>
</svg>
