<svg width="30" height="30" viewBox="0 0 30 30" fill="none" xmlns="http://www.w3.org/2000/svg">
<path d="M17.0568 23.3797H12.9033C12.5246 23.3797 12.2193 23.0722 12.2193 22.6957V22.2149C12.2238 21.8017 12.2036 21.5114 12.1601 21.3494C11.9268 20.4952 11.3096 19.7789 10.7118 19.0844C10.5146 18.8572 10.3286 18.6404 10.1576 18.4222C9.29734 17.3279 8.83984 16.0169 8.83984 14.6264C8.83984 11.2319 11.6028 8.47119 14.9973 8.47119C18.3911 8.47119 21.1533 11.2319 21.1533 14.6264C21.1533 16.0177 20.6981 17.3302 19.8356 18.4237C19.6848 18.6172 19.5108 18.8197 19.3293 19.0334C18.7173 19.7534 18.0341 20.5567 17.7986 21.4049C17.7573 21.5564 17.7371 21.8287 17.7401 22.2097V22.6942C17.7401 23.0722 17.4348 23.3797 17.0568 23.3797ZM13.5888 22.0102H16.3728C16.3803 21.4777 16.4321 21.2152 16.4793 21.0442C16.7966 19.9019 17.5826 18.9742 18.2763 18.1597C18.4586 17.9452 18.6183 17.7577 18.7601 17.5792C19.4298 16.7272 19.7846 15.7079 19.7846 14.6272C19.7846 11.9872 17.6381 9.83919 14.9981 9.83919C12.3581 9.83919 10.2101 11.9872 10.2101 14.6272C10.2101 15.7057 10.5641 16.7257 11.2346 17.5777C11.3928 17.7802 11.5661 17.9789 11.7498 18.1912C12.3821 18.9254 13.1658 19.8352 13.4823 20.9909C13.5288 21.1717 13.5828 21.4469 13.5888 22.0102Z" fill="#4F4F4F"/>
<path d="M17.0563 25.1909H12.9028C12.524 25.1909 12.2188 24.8841 12.2188 24.5054C12.2188 24.1274 12.524 23.8221 12.9028 23.8221H17.0563C17.4343 23.8221 17.7395 24.1274 17.7395 24.5054C17.7395 24.8841 17.4343 25.1909 17.0563 25.1909Z" fill="#79A471"/>
<path d="M16.0201 27H13.9433C13.5646 27 13.2578 26.6932 13.2578 26.316C13.2578 25.938 13.5646 25.6305 13.9433 25.6305H16.0201C16.3966 25.6305 16.7041 25.938 16.7041 26.316C16.7041 26.6932 16.3966 27 16.0201 27Z" fill="#79A471"/>
<path d="M25.941 15.3112H23.205C22.827 15.3112 22.5195 15.006 22.5195 14.6272C22.5195 14.2492 22.827 13.9432 23.205 13.9432H25.941C26.319 13.9432 26.6243 14.2492 26.6243 14.6272C26.6243 15.006 26.319 15.3112 25.941 15.3112Z" fill="#79A471"/>
<path d="M6.79109 15.3112H4.05434C3.67634 15.3112 3.37109 15.006 3.37109 14.6272C3.37109 14.2492 3.67634 13.9432 4.05434 13.9432H6.79034C7.16834 13.9432 7.47584 14.2492 7.47584 14.6272C7.47659 15.006 7.16909 15.3112 6.79109 15.3112Z" fill="#79A471"/>
<path d="M14.998 7.1055C14.6192 7.1055 14.3125 6.80025 14.3125 6.4215V3.684C14.3125 3.30675 14.6192 3 14.998 3C15.3767 3 15.682 3.30675 15.682 3.684V6.42075C15.682 6.7995 15.3767 7.1055 14.998 7.1055Z" fill="#79A471"/>
<path d="M22.7347 23.0497C22.5607 23.0497 22.3859 22.983 22.2517 22.8487L20.3174 20.9137C20.0504 20.6475 20.0504 20.2132 20.3174 19.9455C20.5852 19.6785 21.0179 19.68 21.2849 19.947L23.2192 21.8812C23.4869 22.149 23.4869 22.5832 23.2192 22.8502C23.0857 22.9845 22.9117 23.0497 22.7347 23.0497Z" fill="#79A471"/>
<path d="M9.19228 9.50921C9.01828 9.50921 8.84278 9.44246 8.70778 9.30821L6.77503 7.37471C6.50728 7.10696 6.50728 6.67271 6.77503 6.40496C7.04278 6.13796 7.47553 6.13796 7.74253 6.40496L9.67678 8.33921C9.94453 8.60621 9.94453 9.04121 9.67678 9.30821C9.54328 9.44246 9.36853 9.50921 9.19228 9.50921Z" fill="#79A471"/>
<path d="M7.25878 23.0497C7.08403 23.0497 6.90928 22.9845 6.77503 22.8502C6.50728 22.5832 6.50728 22.149 6.77503 21.8812L8.71078 19.9455C8.97628 19.6785 9.40903 19.6785 9.67678 19.9455C9.94453 20.2132 9.94453 20.6475 9.67678 20.9152L7.74253 22.8502C7.60828 22.9837 7.43428 23.0497 7.25878 23.0497Z" fill="#79A471"/>
<path d="M20.8008 9.5092C20.6261 9.5092 20.4513 9.44245 20.3163 9.3082C20.0508 9.0412 20.0508 8.6077 20.3163 8.3407L22.2506 6.40645C22.5161 6.13945 22.9518 6.13795 23.2181 6.40495C23.4858 6.6727 23.4858 7.10545 23.2181 7.3732L21.2853 9.3067C21.1518 9.44095 20.9771 9.5092 20.8008 9.5092Z" fill="#79A471"/>
</svg>
