<svg width="30" height="30" viewBox="0 0 30 30" fill="none" xmlns="http://www.w3.org/2000/svg">
<path fill-rule="evenodd" clip-rule="evenodd" d="M20.6312 9.0756C20.6312 12.9096 18.2163 16.2 15.0005 16.2C11.7823 16.2 9.36989 12.9096 9.36989 9.0744C9.36989 5.2416 11.447 3 15.0005 3C18.5541 3 20.6312 5.2404 20.6312 9.0756ZM5.11813 24.7704C5.59986 25.32 7.67444 27 15.0005 27C22.3266 27 24.4 25.32 24.883 24.7716C24.9277 24.7189 24.9608 24.658 24.9802 24.5926C24.9996 24.5271 25.0048 24.4586 24.9956 24.3912C24.8855 23.3328 23.892 18.6 15.0005 18.6C6.10912 18.6 5.11562 23.3328 5.00426 24.3912C4.9952 24.4587 5.00063 24.5273 5.02021 24.5927C5.03979 24.6581 5.07311 24.7178 5.11813 24.7704Z" fill="#79A471"/>
</svg>
