<svg width="100" height="100" viewBox="0 0 100 100" fill="none" xmlns="http://www.w3.org/2000/svg">
<path d="M76.6263 33C75.668 30.0834 76.3346 26.2917 74.543 23.8334C72.7513 21.375 68.918 20.8334 66.668 19C64.418 17.1667 62.5013 13.75 59.5846 12.7917C56.668 11.8334 53.3763 13.6667 50.2096 13.6667C47.043 13.6667 43.668 11.875 40.8346 12.7917C38.0013 13.7084 36.0013 17.25 33.543 19C31.0846 20.75 27.2513 21.375 25.4596 23.8334C23.668 26.2917 24.3346 30.0834 23.3763 33C22.418 35.9167 19.668 38.5 19.668 41.6667C19.668 44.8334 22.4596 47.5 23.3763 50.3334C24.293 53.1667 23.668 57.0417 25.4596 59.5C27.2513 61.9583 31.0846 62.5417 33.543 64.3333C36.0013 66.125 37.7096 69.5834 40.6263 70.5417C43.543 71.5 46.8346 69.6667 50.0013 69.6667C53.168 69.6667 56.543 71.4584 59.3763 70.5417C62.2096 69.625 64.0013 66.0833 66.4596 64.3333C68.918 62.5833 72.7513 61.9583 74.543 59.5C76.3346 57.0417 75.668 53.25 76.6263 50.3334C77.5846 47.4167 80.3346 44.8334 80.3346 41.6667C80.3346 38.5 77.543 35.8334 76.6263 33ZM50.0013 54.1667C47.529 54.1667 45.1123 53.4336 43.0567 52.0601C41.0011 50.6865 39.3989 48.7343 38.4528 46.4502C37.5067 44.1662 37.2592 41.6528 37.7415 39.2281C38.2238 36.8033 39.4143 34.576 41.1625 32.8279C42.9106 31.0797 45.1379 29.8892 47.5627 29.4069C49.9874 28.9246 52.5008 29.1721 54.7848 30.1182C57.0689 31.0643 59.0212 32.6664 60.3947 34.7221C61.7682 36.7777 62.5013 39.1944 62.5013 41.6667C62.5013 44.9819 61.1843 48.1613 58.8401 50.5055C56.4959 52.8497 53.3165 54.1667 50.0013 54.1667Z" fill="#79A471"/>
<path d="M58.543 71.25L66.668 87.5L74.918 79.0417L87.5013 79.1667L75.793 55.9167V55.875" stroke="#4F4F4F" stroke-width="4" stroke-linecap="round" stroke-linejoin="round"/>
<path d="M41.4583 71.25L33.3333 87.5L25.0833 79.0417L12.5 79.1667L24.2083 55.9167V55.875" stroke="#4F4F4F" stroke-width="4" stroke-linecap="round" stroke-linejoin="round"/>
<path d="M80.3346 41.6667C80.3346 44.8334 77.543 47.5 76.6263 50.3334C75.7096 53.1667 76.3346 57.0417 74.543 59.5C72.7513 61.9583 68.918 62.5 66.668 64.3333C64.418 66.1667 62.5013 69.5833 59.5846 70.5417C56.668 71.5 53.3763 69.6667 50.2096 69.6667C47.043 69.6667 43.668 71.4583 40.8346 70.5417C38.0013 69.625 36.2096 66.0833 33.7513 64.3333C31.293 62.5833 27.4596 61.9583 25.668 59.5C23.8763 57.0417 24.543 53.25 23.5846 50.3334C22.6263 47.4167 19.668 44.8334 19.668 41.6667C19.668 38.5 22.4596 35.8334 23.3763 33C24.293 30.1667 23.668 26.2917 25.4596 23.8334C27.2513 21.375 31.0846 20.8334 33.543 19C36.0013 17.1667 37.5013 13.75 40.6263 12.7917C43.7513 11.8334 46.8346 13.6667 50.0013 13.6667C53.168 13.6667 56.543 11.875 59.3763 12.7917C62.2096 13.7084 64.0013 17.25 66.668 19C69.3346 20.75 72.9596 21.375 74.7513 23.8334C76.543 26.2917 75.8763 30.0834 76.8346 33C77.793 35.9167 80.3346 38.5 80.3346 41.6667ZM50.0013 29.1667C47.529 29.1667 45.1123 29.8998 43.0567 31.2733C41.0011 32.6468 39.3989 34.5991 38.4528 36.8831C37.5067 39.1672 37.2592 41.6806 37.7415 44.1053C38.2238 46.5301 39.4143 48.7574 41.1625 50.5055C42.9106 52.2537 45.1379 53.4442 47.5627 53.9265C49.9874 54.4088 52.5008 54.1613 54.7848 53.2152C57.0689 52.2691 59.0212 50.6669 60.3947 48.6113C61.7682 46.5557 62.5013 44.139 62.5013 41.6667C62.5013 38.3515 61.1843 35.1721 58.8401 32.8279C56.4959 30.4837 53.3165 29.1667 50.0013 29.1667Z" stroke="#4F4F4F" stroke-width="4" stroke-linecap="round" stroke-linejoin="round"/>
</svg>
