<svg width="30" height="30" viewBox="0 0 30 30" fill="none" xmlns="http://www.w3.org/2000/svg">
<path d="M15.5 25C21.299 25 26 20.299 26 14.5C26 8.70101 21.299 4 15.5 4C9.70101 4 5 8.70101 5 14.5C5 20.299 9.70101 25 15.5 25Z" stroke="#4F4F4F" stroke-width="1.5"/>
<path d="M12 17H15" stroke="#79A471" stroke-width="1.5" stroke-linecap="round"/>
<path d="M13 14.5V10.32C13 10.1156 13 10.0134 13.0123 9.92793C13.0801 9.45724 13.4157 9.08809 13.8436 9.01354C13.9213 9 14.0142 9 14.2 9H16.5C17.8807 9 19 10.2312 19 11.75C19 13.2688 17.8807 14.5 16.5 14.5H13ZM13 14.5V20M13 14.5H12" stroke="#79A471" stroke-width="1.5" stroke-linecap="round"/>
</svg>
