<svg width="30" height="30" viewBox="0 0 30 30" fill="none" xmlns="http://www.w3.org/2000/svg">
<path d="M16.7143 3.57143L17.2813 3.50055C17.2456 3.21459 17.0025 3 16.7143 3V3.57143ZM13.2857 3.57143V3C12.9975 3 12.7544 3.21459 12.7187 3.50055L13.2857 3.57143ZM17.0282 6.0829L16.4613 6.15377C16.4911 6.39256 16.6673 6.58705 16.9019 6.64022L17.0282 6.0829ZM19.8705 7.26101L19.5657 7.74434C19.7693 7.87271 20.0313 7.85981 20.2214 7.71207L19.8705 7.26101ZM21.869 5.70658L22.2731 5.30253C22.0694 5.09874 21.7457 5.07859 21.5182 5.25553L21.869 5.70658ZM24.2934 8.13095L24.7445 8.48177C24.9214 8.2543 24.9013 7.93067 24.6975 7.72689L24.2934 8.13095ZM22.739 10.1295L22.2879 9.77867C22.1402 9.96862 22.1273 10.2308 22.2557 10.4343L22.739 10.1295ZM23.9171 12.9718L23.3598 13.0981C23.4129 13.3327 23.6074 13.5089 23.8462 13.5387L23.9171 12.9718ZM26.4286 13.2857H27C27 12.9975 26.7854 12.7544 26.4994 12.7187L26.4286 13.2857ZM26.4286 16.7143L26.4994 17.2813C26.7854 17.2456 27 17.0025 27 16.7143H26.4286ZM23.9171 17.0282L23.8462 16.4613C23.6074 16.4911 23.4129 16.6673 23.3598 16.9019L23.9171 17.0282ZM22.739 19.8705L22.2557 19.5657C22.1273 19.7693 22.1402 20.0314 22.2879 20.2214L22.739 19.8705ZM24.2934 21.869L24.6975 22.2731C24.9013 22.0694 24.9214 21.7457 24.7445 21.5182L24.2934 21.869ZM21.869 24.2934L21.5182 24.7445C21.7457 24.9214 22.0694 24.9013 22.2731 24.6975L21.869 24.2934ZM19.8705 22.739L20.2214 22.2879C20.0313 22.1402 19.7693 22.1273 19.5657 22.2557L19.8705 22.739ZM17.0282 23.9171L16.9019 23.3598C16.6673 23.4129 16.4911 23.6074 16.4613 23.8462L17.0282 23.9171ZM16.7143 26.4286V27C17.0025 27 17.2456 26.7854 17.2813 26.4994L16.7143 26.4286ZM13.2857 26.4286L12.7187 26.4994C12.7544 26.7854 12.9975 27 13.2857 27V26.4286ZM12.9718 23.9171L13.5387 23.8462C13.5089 23.6074 13.3327 23.4129 13.0981 23.3598L12.9718 23.9171ZM10.1295 22.739L10.4343 22.2557C10.2308 22.1273 9.96864 22.1402 9.77869 22.2879L10.1295 22.739ZM8.13096 24.2934L7.7269 24.6975C7.93069 24.9013 8.25431 24.9214 8.48178 24.7445L8.13096 24.2934ZM5.70659 21.869L5.25554 21.5182C5.07861 21.7457 5.09875 22.0694 5.30254 22.2731L5.70659 21.869ZM7.26102 19.8705L7.71208 20.2214C7.85982 20.0314 7.87272 19.7693 7.74435 19.5657L7.26102 19.8705ZM6.0829 17.0282L6.64022 16.9019C6.58705 16.6673 6.39256 16.4911 6.15377 16.4613L6.0829 17.0282ZM3.57143 16.7143H3C3 17.0025 3.21459 17.2456 3.50055 17.2813L3.57143 16.7143ZM3.57143 13.2857L3.50055 12.7187C3.21459 12.7544 3 12.9975 3 13.2857H3.57143ZM6.0829 12.9718L6.15377 13.5387C6.39256 13.5089 6.58705 13.3327 6.64022 13.0981L6.0829 12.9718ZM7.26102 10.1295L7.74435 10.4343C7.87272 10.2308 7.85982 9.96863 7.71208 9.77867L7.26102 10.1295ZM5.70659 8.13096L5.30254 7.72689C5.09875 7.93067 5.07861 8.2543 5.25553 8.48178L5.70659 8.13096ZM8.13096 5.70659L8.48178 5.25553C8.25431 5.07861 7.93067 5.09875 7.7269 5.30253L8.13096 5.70659ZM10.1295 7.26102L9.77869 7.71207C9.96863 7.85981 10.2308 7.87272 10.4343 7.74434L10.1295 7.26102ZM12.9718 6.0829L13.0981 6.64022C13.3327 6.58705 13.5089 6.39256 13.5387 6.15377L12.9718 6.0829ZM16.7143 3H13.2857V4.14286H16.7143V3ZM17.5952 6.01202L17.2813 3.50055L16.1473 3.64231L16.4613 6.15377L17.5952 6.01202ZM20.1753 6.77768C19.2605 6.20067 18.2422 5.77194 17.1544 5.52559L16.9019 6.64022C17.8606 6.85734 18.7584 7.23523 19.5657 7.74434L20.1753 6.77768ZM20.2214 7.71207L22.2199 6.15765L21.5182 5.25553L19.5197 6.80995L20.2214 7.71207ZM21.465 6.11065L23.8894 8.53502L24.6975 7.72689L22.2731 5.30253L21.465 6.11065ZM23.8424 7.78013L22.2879 9.77867L23.1901 10.4803L24.7445 8.48177L23.8424 7.78013ZM24.4744 12.8456C24.2281 11.7579 23.7993 10.7396 23.2223 9.82466L22.2557 10.4343C22.7648 11.2416 23.1426 12.1394 23.3598 13.0981L24.4744 12.8456ZM26.4994 12.7187L23.988 12.4048L23.8462 13.5387L26.3577 13.8527L26.4994 12.7187ZM27 16.7143V13.2857H25.8571V16.7143H27ZM23.988 17.5952L26.4994 17.2813L26.3577 16.1473L23.8462 16.4613L23.988 17.5952ZM23.2223 20.1753C23.7993 19.2605 24.2281 18.2422 24.4744 17.1544L23.3598 16.9019C23.1426 17.8606 22.7648 18.7584 22.2557 19.5657L23.2223 20.1753ZM24.7445 21.5182L23.1901 19.5197L22.2879 20.2214L23.8424 22.2199L24.7445 21.5182ZM22.2731 24.6975L24.6975 22.2731L23.8894 21.465L21.465 23.8894L22.2731 24.6975ZM19.5197 23.1901L21.5182 24.7445L22.2199 23.8424L20.2214 22.2879L19.5197 23.1901ZM17.1544 24.4744C18.2422 24.2281 19.2605 23.7993 20.1753 23.2223L19.5657 22.2557C18.7584 22.7648 17.8606 23.1426 16.9019 23.3598L17.1544 24.4744ZM17.2813 26.4994L17.5952 23.988L16.4613 23.8462L16.1473 26.3577L17.2813 26.4994ZM13.2857 27H16.7143V25.8571H13.2857V27ZM12.4048 23.988L12.7187 26.4994L13.8527 26.3577L13.5387 23.8462L12.4048 23.988ZM9.82469 23.2223C10.7396 23.7993 11.7579 24.2281 12.8456 24.4744L13.0981 23.3598C12.1394 23.1426 11.2416 22.7648 10.4343 22.2557L9.82469 23.2223ZM8.48178 24.7445L10.4803 23.1901L9.77869 22.2879L7.78014 23.8424L8.48178 24.7445ZM5.30254 22.2731L7.7269 24.6975L8.53503 23.8894L6.11066 21.465L5.30254 22.2731ZM6.80997 19.5197L5.25554 21.5182L6.15766 22.2199L7.71208 20.2214L6.80997 19.5197ZM5.52559 17.1544C5.77194 18.2422 6.20067 19.2605 6.77768 20.1753L7.74435 19.5657C7.23525 18.7584 6.85734 17.8606 6.64022 16.9019L5.52559 17.1544ZM3.50055 17.2813L6.01202 17.5952L6.15377 16.4613L3.64231 16.1473L3.50055 17.2813ZM3 13.2857V16.7143H4.14286V13.2857H3ZM6.01202 12.4048L3.50055 12.7187L3.64231 13.8527L6.15377 13.5387L6.01202 12.4048ZM6.77768 9.82467C6.20067 10.7396 5.77194 11.7579 5.52559 12.8456L6.64022 13.0981C6.85734 12.1394 7.23523 11.2416 7.74435 10.4343L6.77768 9.82467ZM5.25553 8.48178L6.80995 10.4803L7.71208 9.77867L6.15766 7.78014L5.25553 8.48178ZM7.7269 5.30253L5.30254 7.72689L6.11065 8.53502L8.53502 6.11065L7.7269 5.30253ZM10.4803 6.80995L8.48178 5.25553L7.78014 6.15765L9.77869 7.71207L10.4803 6.80995ZM12.8456 5.52559C11.7579 5.77194 10.7396 6.20067 9.82469 6.77768L10.4343 7.74434C11.2416 7.23523 12.1394 6.85734 13.0981 6.64022L12.8456 5.52559ZM12.7187 3.50055L12.4048 6.01202L13.5387 6.15377L13.8527 3.64231L12.7187 3.50055Z" fill="#4F4F4F"/>
<path d="M15 20C17.7614 20 20 17.7614 20 15C20 12.2386 17.7614 10 15 10C12.2386 10 10 12.2386 10 15C10 17.7614 12.2386 20 15 20Z" stroke="#79A471" stroke-width="1.5" stroke-linejoin="round"/>
</svg>
