<svg width="30" height="30" viewBox="0 0 30 30" fill="none" xmlns="http://www.w3.org/2000/svg">
<path d="M15 27C11.7957 27 8.78134 25.8021 6.5141 23.6239C4.24685 21.4458 3 18.5499 3 15.4714C3 12.3929 4.24685 9.49703 6.5141 7.31885C6.95662 6.89372 7.67505 6.89372 8.11757 7.31885C8.56009 7.74398 8.56009 8.4342 8.11757 8.85933C6.27983 10.6274 5.26725 12.9756 5.26725 15.4714C5.26725 17.9697 6.27983 20.3179 8.11757 22.0835C9.95531 23.849 12.3996 24.8218 15 24.8218C17.6004 24.8218 20.0447 23.849 21.8824 22.0835C23.7202 20.3179 24.7328 17.9697 24.7328 15.4714C24.7328 12.9731 23.7202 10.6249 21.8824 8.85933C21.4399 8.4342 21.4399 7.74398 21.8824 7.31885C22.3249 6.89372 23.0434 6.89372 23.4859 7.31885C25.7531 9.49703 27 12.3904 27 15.4714C27 18.5499 25.7531 21.4458 23.4859 23.6239C21.2187 25.8021 18.2043 27 15 27Z" fill="#4F4F4F"/>
<path d="M15 16C14.4473 16 14 15.5151 14 14.916V4.08397C14 3.48487 14.4473 3 15 3C15.5527 3 16 3.48487 16 4.08397V14.916C16 15.5151 15.5527 16 15 16Z" fill="#79A471"/>
</svg>
