<svg width="31" height="30" viewBox="0 0 31 30" fill="none" xmlns="http://www.w3.org/2000/svg">
<mask id="mask0_171_2341" style="mask-type:luminance" maskUnits="userSpaceOnUse" x="0" y="0" width="31" height="30">
<path d="M0.945312 0H30.9453V30H0.945312V0Z" fill="white"/>
</mask>
<g mask="url(#mask0_171_2341)">
<path d="M5.32577 19.2234C5.15594 19.5622 5.22208 19.9716 5.48965 20.2394L5.70457 20.4543C6.32552 19.7185 7.04925 18.9199 7.92701 18.0424C7.98904 17.9804 8.05289 17.9504 8.11515 17.8932L6.73247 16.5103C5.92864 17.9641 5.45989 18.9575 5.32577 19.2234Z" fill="#79A471"/>
<path d="M12.8983 23.0141C12.0185 23.8939 11.2219 24.619 10.4902 25.2404L10.7813 25.5315C11.0514 25.8016 11.4648 25.8666 11.8047 25.6918C12.2599 25.4572 12.9759 25.1202 14.4956 24.2738L13.0477 22.8259C12.9905 22.8884 12.9605 22.952 12.8983 23.0141Z" fill="#79A471"/>
<path d="M12.43 18.5119C11.7948 17.8767 10.0086 18.4462 9.1695 19.285C6.36249 22.0921 5.09472 24.0822 4.52549 25.2573C4.3623 25.5939 4.43027 25.997 4.69486 26.2616C4.95991 26.5269 5.36365 26.5942 5.70057 26.431C6.84933 25.8732 8.81519 24.6114 11.6556 21.7712C12.5783 20.8481 13.0329 19.115 12.43 18.5119Z" fill="#79A471"/>
<path d="M3.68865 11.7018L1.20276 14.1877C0.921692 14.4688 0.864013 14.9039 1.06314 15.2486C1.25747 15.5887 1.66442 15.7619 2.05169 15.6583C3.39522 15.298 4.5774 15.1458 5.37345 15.3499C6.50595 13.3365 7.72292 11.483 9.01175 9.79934C8.26628 9.32143 5.80283 9.58762 3.68865 11.7018Z" fill="#79A471"/>
<path d="M15.8216 29.9057C16.1601 30.0769 16.57 30.0107 16.8381 29.7425L19.3242 27.2566C21.2488 25.3315 21.5876 22.8476 21.1509 22.0601C19.2731 23.4752 17.3709 24.6702 15.5961 25.6707C15.7186 26.3621 15.6371 27.033 15.3476 28.9922C15.291 29.3715 15.487 29.7384 15.8216 29.9057Z" fill="#79A471"/>
<path d="M18.394 8.81651C17.366 9.84465 17.366 11.5171 18.394 12.5452C19.4221 13.5734 21.0948 13.5734 22.1229 12.5452C23.151 11.5171 23.151 9.84465 22.1229 8.81651C21.0948 7.78838 19.4221 7.78838 18.394 8.81651Z" fill="#79A471"/>
<path d="M30.8931 0.857315C30.8616 0.422669 30.5155 0.0791169 30.0822 0.0466157C27.9236 -0.11589 25.7735 0.149613 23.666 0.794144C23.8246 2.24205 24.5735 3.80897 25.852 5.08751C27.1459 6.38115 28.7554 7.12982 30.2292 7.2699C30.7968 5.28068 31.066 3.15025 30.8931 0.857315Z" fill="#79A471"/>
<path d="M24.6093 6.33063C23.1467 4.86807 22.2537 3.11392 21.9671 1.40601C16.6893 3.57054 11.637 8.29741 7.64453 14.9377L9.62802 16.9212C10.9833 16.371 12.6285 16.2256 13.672 17.2689C14.7168 18.314 14.5687 19.9585 14.0187 21.3119L16.0674 23.3606C21.1765 20.2814 27.1247 15.4303 29.6541 8.97604C27.9045 8.71169 26.0957 7.81699 24.6093 6.33063ZM23.366 13.7883C21.6528 15.5015 18.8648 15.5015 17.1514 13.7883C15.438 12.0749 15.438 9.28664 17.1514 7.57346C18.8648 5.86028 21.6528 5.86028 23.366 7.57346C25.0794 9.28687 25.0794 12.0749 23.366 13.7883Z" fill="#79A471"/>
</g>
</svg>
