<svg width="1790" height="290" viewBox="0 0 1790 290" fill="none" xmlns="http://www.w3.org/2000/svg">
<path d="M1789.16 84.8351L1772.84 84.8351L1772.84 101.165L1789.16 101.165L1789.16 84.8351ZM1594.41 282.414L1782.41 94.4142L1779.59 91.5858L1591.59 279.586L1594.41 282.414Z" fill="#C59B4B"/>
<path d="M1043.21 274.206L1043.21 253.794L1022.79 253.794L1022.79 274.206L1043.21 274.206ZM942.232 176.768L1031.23 265.768L1034.77 262.232L945.768 173.232L942.232 176.768Z" fill="#C59B4B"/>
<path d="M514.835 0.835031L514.835 17.165L531.165 17.165L531.165 0.835032L514.835 0.835031ZM597.414 80.5858L524.414 7.58578L521.586 10.4142L594.586 83.4142L597.414 80.5858Z" fill="#C59B4B"/>
<path d="M0.566102 168.619L14.9999 183.053L29.4336 168.619L14.9999 154.185L0.566102 168.619ZM118.237 166.119H14.9999L14.9999 171.119H118.237L118.237 166.119Z" fill="#C59B4B"/>
<path d="M60.44 49.04H171.65C193.43 49.04 211.58 53.99 225.44 63.89C239.3 73.79 246.56 88.31 246.56 108.11C246.56 119.33 243.59 128.9 237.98 137.48C232.04 146.06 224.45 152.33 214.55 156.62C242.93 164.87 257.45 184.01 257.45 214.04C257.45 236.48 249.86 253.64 235.01 265.85C219.83 278.06 201.02 284 177.92 284H60.44V49.04ZM110.6 88.97V144.41H157.46C183.2 144.41 196.4 135.17 196.4 117.02C196.4 106.13 192.77 98.87 185.84 94.91C178.58 90.95 169.34 88.97 157.46 88.97H110.6ZM110.6 179.39L110.27 243.41H162.08C175.61 243.41 186.17 241.1 194.09 236.81C202.01 232.19 205.97 223.94 205.97 211.4C205.97 198.53 201.68 189.95 193.43 185.66C185.18 181.37 173.96 179.39 159.77 179.39H110.6ZM493.104 49.04V190.28C493.104 223.94 484.854 249.02 468.684 264.86C452.514 280.7 427.434 288.62 393.114 288.62C358.134 288.62 332.724 280.7 316.224 264.53C299.724 248.36 291.804 223.28 291.804 189.62V49.04H343.284V189.62C343.284 208.76 346.914 222.95 354.174 232.19C361.434 241.43 374.634 246.05 393.774 246.05C412.254 246.05 424.794 241.43 431.394 232.19C437.994 222.95 441.624 208.76 441.624 189.62V49.04H493.104ZM711.633 119L662.463 119.33C660.483 95.9 645.633 84.35 617.913 84.35C606.033 84.35 596.793 86.66 590.193 91.28C583.593 95.9 579.963 102.5 579.963 111.08C579.963 113.72 580.623 116.36 581.283 118.67C582.273 120.65 583.923 122.63 586.233 124.61C588.873 126.59 591.183 127.91 593.493 129.23C596.133 130.55 599.763 131.87 604.383 133.19C609.003 134.51 613.293 135.83 617.253 137.15C621.213 138.14 626.493 139.46 633.423 141.44C640.683 143.09 646.623 144.74 651.903 146.39C675.003 152.99 692.493 161.24 703.713 171.14C714.933 181.04 720.543 195.23 720.543 213.71C720.543 226.91 717.903 238.79 712.293 248.69C707.013 258.59 699.423 266.51 690.183 272.45C680.943 278.39 670.713 282.68 659.493 285.32C648.273 287.96 636.393 289.61 623.853 289.61C592.173 289.61 567.093 282.02 549.273 267.5C531.453 252.98 522.213 232.19 521.883 205.79H573.033C574.023 235.16 591.843 250.01 626.163 250.01C639.693 250.01 650.253 247.04 658.173 241.43C666.093 235.82 669.723 228.23 669.723 218.66C669.723 210.41 666.423 204.47 659.163 200.84C651.903 196.88 637.053 191.93 613.953 185.33C612.633 185 611.643 184.67 610.983 184.67C610.323 184.34 609.663 184.01 608.343 183.68C607.353 183.35 606.363 183.02 605.373 183.02C597.453 180.71 592.173 179.06 588.873 178.07C585.903 177.08 580.953 175.43 574.353 173.12C567.753 170.48 562.803 168.5 559.833 166.52C556.533 164.54 552.903 161.57 548.283 158.27C543.663 154.64 540.693 151.01 538.713 147.05C536.733 143.09 534.753 138.47 533.103 132.86C531.453 127.25 530.793 121.31 530.793 114.71C530.793 93.26 539.043 76.1 555.543 63.23C572.043 50.69 593.823 44.09 621.213 44.09C647.613 44.09 669.063 50.36 685.893 62.9C702.393 75.44 710.973 93.92 711.633 119ZM803.84 49.04V284H752.03V49.04H803.84ZM849.684 49.04H950.994C977.394 49.04 998.184 55.64 1013.69 68.18C1029.2 80.72 1037.12 99.53 1037.12 124.61C1037.12 149.36 1029.2 168.17 1014.02 180.71C998.514 193.25 978.384 199.52 953.634 199.52H900.834V284H849.684V49.04ZM900.834 91.28V158.93H946.704C973.434 158.93 986.964 147.71 986.964 125.27C986.964 102.83 973.434 91.28 947.034 91.28H900.834ZM1175.72 43.43C1210.04 43.43 1237.76 54.98 1258.88 77.75C1280 100.52 1290.89 130.22 1290.89 166.85C1290.89 203.81 1280 233.51 1258.88 255.95C1237.76 278.39 1209.71 289.61 1175.39 289.61C1140.41 289.61 1112.36 278.39 1091.24 255.95C1069.79 233.51 1059.23 203.81 1059.23 166.85C1059.23 129.89 1069.79 99.86 1090.91 77.42C1112.03 54.98 1140.41 43.43 1175.72 43.43ZM1175.06 85.67C1155.59 85.67 1140.08 93.26 1128.53 107.78C1116.98 122.3 1111.04 141.77 1111.04 166.19C1111.04 191.27 1116.98 211.07 1128.2 225.59C1139.75 239.78 1155.59 247.04 1175.72 247.37C1195.19 247.37 1210.7 240.11 1221.92 225.59C1233.14 211.07 1238.75 191.27 1238.75 166.19C1238.75 141.44 1232.81 121.97 1221.59 107.45C1210.04 92.93 1194.53 85.67 1175.06 85.67ZM1432.57 43.43C1466.89 43.43 1494.61 54.98 1515.73 77.75C1536.85 100.52 1547.74 130.22 1547.74 166.85C1547.74 203.81 1536.85 233.51 1515.73 255.95C1494.61 278.39 1466.56 289.61 1432.24 289.61C1397.26 289.61 1369.21 278.39 1348.09 255.95C1326.64 233.51 1316.08 203.81 1316.08 166.85C1316.08 129.89 1326.64 99.86 1347.76 77.42C1368.88 54.98 1397.26 43.43 1432.57 43.43ZM1431.91 85.67C1412.44 85.67 1396.93 93.26 1385.38 107.78C1373.83 122.3 1367.89 141.77 1367.89 166.19C1367.89 191.27 1373.83 211.07 1385.05 225.59C1396.6 239.78 1412.44 247.04 1432.57 247.37C1452.04 247.37 1467.55 240.11 1478.77 225.59C1489.99 211.07 1495.6 191.27 1495.6 166.19C1495.6 141.44 1489.66 121.97 1478.44 107.45C1466.89 92.93 1451.38 85.67 1431.91 85.67ZM1749.47 239.78V284H1583.15V49.04H1634.63V239.78H1749.47Z" fill="#79A471"/>
</svg>
