<svg width="30" height="30" viewBox="0 0 30 30" fill="none" xmlns="http://www.w3.org/2000/svg">
<path d="M24.9856 30H5.01438C2.25462 30 0 27.7454 0 24.9856V5.01437C0 2.25462 2.25462 0 5.01438 0H24.9856C27.7454 0 30 2.25462 30 5.01437V24.9856C30 27.7577 27.7577 30 24.9856 30Z" fill="#79A471"/>
<path d="M15.0061 22.707C12.9486 22.707 11.0143 21.9062 9.56053 20.4524C8.10673 18.9986 7.30591 17.0643 7.30591 15.0068C7.30591 12.9494 8.10673 11.0151 9.56053 9.56126C11.0143 8.10746 12.9486 7.30664 15.0061 7.30664C17.0636 7.30664 18.9979 8.10746 20.4517 9.56126C21.9055 11.0151 22.7063 12.9494 22.7063 15.0068C22.7063 17.0643 21.9055 18.9986 20.4517 20.4524C18.9856 21.9062 17.0636 22.707 15.0061 22.707ZM15.0061 8.94524C11.6673 8.94524 8.94451 11.6557 8.94451 15.0068C8.94451 18.3457 11.655 21.0684 15.0061 21.0684C18.3449 21.0684 21.0677 18.358 21.0677 15.0068C21.0554 11.668 18.3449 8.94524 15.0061 8.94524Z" fill="#B5EBAB"/>
<path d="M24.207 7.05266C25.0235 7.05266 25.6855 6.39072 25.6855 5.57418C25.6855 4.75764 25.0235 4.0957 24.207 4.0957C23.3905 4.0957 22.7285 4.75764 22.7285 5.57418C22.7285 6.39072 23.3905 7.05266 24.207 7.05266Z" fill="#B5EBAB"/>
</svg>
