<svg width="110" height="110" viewBox="0 0 110 110" fill="none" xmlns="http://www.w3.org/2000/svg">
<g clip-path="url(#clip0_644_1426)">
<path d="M12.7834 109.627C8.76118 108.655 5.08403 105.575 3.28679 101.673C1.91242 98.6891 1.99853 101.806 1.99853 54.9858C1.99853 6.99637 1.85553 11.2806 3.56855 7.75945C4.71836 5.39555 7.38429 2.76354 9.8695 1.53877C13.1821 -0.093791 10.6078 0.00412947 50.319 4.37555e-05H85.9164L96.9579 10.9152L107.999 21.8302L107.937 59.9205C107.878 95.4518 107.849 98.0977 107.496 99.3046C105.985 104.487 101.921 108.48 96.9711 109.647C94.9323 110.127 14.7744 110.112 12.7834 109.631V109.627ZM96.2844 101.594C97.73 100.941 98.9657 99.5936 99.5487 98.0352L100.009 96.8046V61.3416V25.8785L91.2216 25.822L82.4341 25.7654L82.3776 16.8675L82.321 7.9694L48.3054 8.02599L14.2898 8.08249L13.3644 8.57663C12.017 9.29618 10.8138 10.6413 10.3076 11.9942C9.86573 13.1751 9.86495 13.2715 9.92089 55.3764L9.97746 97.5751L10.486 98.5456C11.0995 99.7163 12.1182 100.832 12.9965 101.296C14.7318 102.211 13.5174 102.187 55.2629 102.144L95.1572 102.103L96.2844 101.594ZM39.2318 89.6199L38.296 87.3829L37.2069 87.2384C36.6078 87.1598 35.862 87.0428 35.5495 86.9803C35.0449 86.8797 34.8177 87.0731 33.5193 88.7114C32.7152 89.7261 31.9724 90.6088 31.8687 90.6729C31.6442 90.8112 26.6929 87.8069 26.5554 87.4485C26.5035 87.3117 26.8571 86.2468 27.3424 85.0811L28.2244 82.9616L27.7074 82.3976C27.3146 81.9689 26.2944 80.5725 26.1666 80.2886C26.1509 80.2697 25.0347 80.3813 23.6709 80.5397C22.3069 80.6972 21.1616 80.7971 21.126 80.7617C20.944 80.5812 19.6413 74.6989 19.7591 74.59C19.8346 74.5192 20.8406 74.0841 21.9939 73.6214C24.2946 72.6984 24.1689 72.8587 24.4348 70.5121L24.5699 69.3261L22.6132 67.7598L20.6566 66.1933L22.1988 63.6626C23.047 62.2706 23.8111 61.0506 23.8969 60.9518C23.9833 60.8528 25.0101 61.1723 26.1803 61.6618C27.4213 62.1807 28.4875 62.5017 28.7391 62.4319C28.9763 62.3659 29.5537 61.982 30.0221 61.578L30.8738 60.8437L30.5354 58.3999C30.3491 57.0557 30.2571 55.892 30.3306 55.8138C30.533 55.5982 36.1637 54.0883 36.3448 54.2011C36.4312 54.2545 36.9352 55.3143 37.4643 56.555L38.4261 58.8107L40.2584 58.9522L42.0909 59.0936L42.6391 58.3907C43.929 56.7368 45.2633 55.2026 45.4119 55.2026C45.7348 55.2026 50.7336 58.3926 50.6946 58.5737C50.6726 58.6759 50.2398 59.7613 49.7335 60.9842C49.104 62.5041 48.878 63.294 49.019 63.481C49.1321 63.6319 49.5467 64.1899 49.9395 64.7218L50.6536 65.6891L53.2645 65.4062C54.7006 65.2506 55.916 65.1637 55.9653 65.2131C56.0392 65.2869 56.3745 66.6407 57.3903 70.9696C57.4516 71.2329 56.9222 71.547 55.2173 72.2578C53.9773 72.7748 52.8866 73.3458 52.7935 73.5269C52.7008 73.7079 52.56 74.4484 52.4813 75.1726L52.3383 76.4893L53.1242 77.0887C53.5563 77.4184 54.4789 78.1616 55.1744 78.7404L56.4388 79.7926L55.0124 82.1075C54.2278 83.3808 53.4762 84.5822 53.3421 84.7775C53.1218 85.0982 52.8726 85.0417 50.7604 84.1926L48.4228 83.2528L47.6383 83.8889C47.2068 84.2388 46.6321 84.6961 46.3612 84.9051L45.8687 85.2851L46.1616 87.8403C46.3675 89.6372 46.3857 90.4185 46.2229 90.4731C45.942 90.5674 40.3621 91.8631 40.249 91.8602C40.205 91.8602 39.7479 90.8516 39.2331 89.6212L39.2318 89.6199ZM42.0931 80.9019C45.7177 79.2058 47.8322 75.3747 47.1873 71.6719C46.8286 69.6118 46.1986 68.4337 44.5998 66.8333C42.7075 64.9391 41.2527 64.3663 38.3347 64.3663C36.5579 64.3663 36.1205 64.4432 35.0394 64.9505C31.4922 66.6126 29.2625 70.6114 29.8915 74.1824C30.5167 77.7315 33.1688 80.656 36.5271 81.4997C38.076 81.8888 40.5527 81.6222 42.0931 80.9019ZM71.895 70.747L70.9373 68.4636L69.5868 68.3111C68.8441 68.2279 68.1189 68.1135 67.9753 68.0583C67.8323 68.0033 66.9738 68.8674 66.0687 69.9786L64.4232 71.999L61.7838 70.3668C60.3322 69.4691 59.116 68.71 59.0811 68.6798C59.0466 68.65 59.4278 67.6326 59.9288 66.4198C60.536 64.9497 60.7726 64.1255 60.6389 63.9468C60.5289 63.7991 60.0578 63.1683 59.593 62.5443L58.7475 61.4096L57.7599 61.5369C57.2168 61.6076 56.089 61.7264 55.2538 61.8022L53.7351 61.9405L53.0115 58.8904C52.6136 57.2129 52.3265 55.8048 52.3737 55.7611C52.4208 55.7171 53.4411 55.276 54.6412 54.78L56.823 53.8783L56.9487 52.6531C57.0179 51.9792 57.1319 51.234 57.2016 50.9969C57.3021 50.6516 56.979 50.2864 55.5786 49.1669C54.6162 48.3977 53.7287 47.6474 53.6061 47.4999C53.444 47.3042 53.8296 46.504 55.0264 44.5534L56.6695 41.8752L58.9391 42.8315C60.1874 43.3577 61.3264 43.718 61.4702 43.6323C61.6132 43.5475 62.1197 43.1804 62.5941 42.8182C63.0685 42.4562 63.4797 42.152 63.5077 42.1424C63.536 42.1267 63.404 40.9868 63.2131 39.5955C63.0229 38.2043 62.9239 37.0094 62.9931 36.9402C63.1541 36.7793 68.3067 35.3708 68.7523 35.3661C68.9719 35.3661 69.4285 36.1268 70.0701 37.5682C71.156 40.0073 70.9742 39.8722 73.592 40.1862L74.6702 40.3151L76.3562 38.2547C77.9659 36.2874 78.0634 36.2081 78.5126 36.5004C78.7715 36.6687 79.9049 37.3691 81.0318 38.0569C82.1585 38.7446 83.1598 39.3772 83.2568 39.4627C83.3542 39.5476 82.9801 40.6985 82.4261 42.019L81.4188 44.4198L82.0341 45.1254C82.3722 45.5135 82.7978 46.0583 82.9796 46.3361C83.309 46.8391 83.3187 46.8403 85.522 46.6006C89.0349 46.2184 88.6031 45.9149 89.3984 49.325C89.7787 50.9558 90.0894 52.3387 90.0887 52.3979C90.0887 52.4577 89.0319 52.9424 87.7416 53.4762L85.3957 54.4466L85.2699 55.6504C85.2008 56.3126 85.0877 57.0006 85.019 57.1795C84.9326 57.4037 85.536 58.026 86.9614 59.1843C88.0984 60.1082 89.0004 60.9443 88.9659 61.0426C88.7731 61.5933 85.8529 66.183 85.6908 66.1903C85.5839 66.1903 84.5119 65.7996 83.308 65.311L81.119 64.4227L79.8897 65.3421C78.4897 66.389 78.4833 66.4164 78.8859 69.6273C79.01 70.6169 79.0689 71.4693 79.0163 71.5214C78.9644 71.5733 77.5561 71.9342 75.8871 72.3232L72.8525 73.0304L71.895 70.747ZM72.6467 62.7486C77.7381 61.802 81.0321 56.5938 79.6117 51.7363C78.1129 46.611 72.2063 43.8924 67.5093 46.1662C65.9475 46.9222 64.0898 48.802 63.299 50.4266C62.6494 51.7609 62.6015 52.0137 62.5982 54.1232C62.5982 56.1328 62.6594 56.5262 63.1727 57.6206C63.8617 59.0905 65.4402 60.8406 66.7925 61.6335C67.7427 62.1909 70.1082 62.927 71.0293 62.9521C71.28 62.9521 72.0079 62.8673 72.6467 62.7486Z" fill="#79A471"/>
</g>
<defs>
<clipPath id="clip0_644_1426">
<rect width="110" height="110" fill="white"/>
</clipPath>
</defs>
</svg>
