<svg width="122" height="110" viewBox="0 0 122 110" fill="none" xmlns="http://www.w3.org/2000/svg">
<path d="M121.713 36.2091C121.583 35.9289 121.425 35.6629 121.241 35.4152C121.103 34.7285 120.916 34.0526 120.685 33.3922C120.656 33.3157 120.628 33.2391 120.59 33.1626L107.599 2.86957C107.232 2.01631 106.626 1.29029 105.858 0.780556C105.089 0.270826 104.19 -0.000450786 103.272 5.62298e-07H18.3319C17.4133 -0.000450786 16.5146 0.270826 15.7459 0.780556C14.9773 1.29029 14.3721 2.01631 14.0047 2.86957L0.933349 33.3874C-0.311116 36.5884 -0.311116 40.1486 0.933349 43.3496C2.13564 46.1351 3.8774 48.6477 6.05542 50.7385C8.23344 52.8293 10.8034 54.4557 13.613 55.5213V105.217C13.613 106.486 14.1102 107.702 14.9951 108.599C15.8801 109.496 17.0804 110 18.3319 110H103.272C104.523 110 105.724 109.496 106.609 108.599C107.494 107.702 107.991 106.486 107.991 105.217V55.5213C110.8 54.457 113.369 52.8322 115.547 50.743C117.725 48.6539 119.467 46.1431 120.67 43.3591C121.059 42.353 121.318 41.3 121.44 40.2265C121.754 39.6116 121.941 38.9377 121.988 38.2466C122.035 37.5556 121.942 36.862 121.713 36.2091ZM46.6452 100.435V71.7391H56.083V100.435H46.6452ZM65.5208 100.435V71.7391H74.9585V100.435H65.5208ZM98.553 100.435H84.3963V66.9565C84.3963 65.6881 83.8991 64.4716 83.0142 63.5747C82.1292 62.6778 80.9289 62.1739 79.6774 62.1739H41.9263C40.6748 62.1739 39.4745 62.6778 38.5896 63.5747C37.7046 64.4716 37.2074 65.6881 37.2074 66.9565V100.435H23.0508V57.3913C26.6259 57.4367 30.1675 56.6898 33.428 55.2028C36.6884 53.7158 39.5889 51.5246 41.9263 48.7826C44.2904 51.4929 47.1958 53.6631 50.4499 55.1495C53.704 56.6359 57.2325 57.4045 60.8019 57.4045C64.3712 57.4045 67.8998 56.6359 71.1539 55.1495C74.408 53.6631 77.3133 51.4929 79.6774 48.7826C82.0149 51.5246 84.9153 53.7158 88.1758 55.2028C91.4362 56.6898 94.9779 57.4367 98.553 57.3913V100.435ZM111.94 39.6957C110.733 42.2256 108.823 44.3429 106.445 45.7874C104.066 47.2318 101.323 47.9404 98.553 47.8261C95.1184 48.1092 91.7114 47.0152 89.0642 44.7794C86.417 42.5436 84.7409 39.3445 84.3963 35.8696C84.3963 34.6011 83.8991 33.3847 83.0142 32.4878C82.1292 31.5908 80.9289 31.087 79.6774 31.087C78.4259 31.087 77.2256 31.5908 76.3407 32.4878C75.4557 33.3847 74.9585 34.6011 74.9585 35.8696C74.6139 39.3445 72.9379 42.5436 70.2907 44.7794C67.6435 47.0152 64.2364 48.1092 60.8019 47.8261C57.3673 48.1092 53.9603 47.0152 51.3131 44.7794C48.6659 42.5436 46.9898 39.3445 46.6452 35.8696C46.6452 34.6011 46.148 33.3847 45.2631 32.4878C44.3781 31.5908 43.1779 31.087 41.9263 31.087C40.6748 31.087 39.4745 31.5908 38.5896 32.4878C37.7046 33.3847 37.2074 34.6011 37.2074 35.8696C36.8628 39.3445 35.1868 42.5436 32.5396 44.7794C29.8924 47.0152 26.4853 48.1092 23.0508 47.8261C20.2797 47.9408 17.5359 47.2323 15.1566 45.7879C12.7774 44.3435 10.8664 42.226 9.65857 39.6957C9.34234 38.8136 9.34234 37.8469 9.65857 36.9648L21.4275 9.56522H100.176L111.865 36.8261C112.23 37.7422 112.257 38.7611 111.94 39.6957Z" fill="#79A471"/>
</svg>
