<svg width="37" height="37" viewBox="0 0 37 37" fill="none" xmlns="http://www.w3.org/2000/svg">
<path fill-rule="evenodd" clip-rule="evenodd" d="M2.60089 2.60089C0 5.20178 0 9.38783 0 17.76V19.24C0 27.6122 0 31.7982 2.60089 34.3991C5.20178 37 9.38783 37 17.76 37H19.24C27.6122 37 31.7982 37 34.3991 34.3991C37 31.7982 37 27.6122 37 19.24V17.76C37 9.38783 37 5.20178 34.3991 2.60089C31.7982 0 27.6122 0 19.24 0H17.76C9.38783 0 5.20178 0 2.60089 2.60089ZM6.24384 11.2542C6.44426 20.8742 11.2542 26.6555 19.6872 26.6555H20.1652V21.1517C23.2639 21.4601 25.6071 23.7263 26.5475 26.6555H30.9259C29.7234 22.2772 26.5628 19.8567 24.5895 18.9317C26.5628 17.7909 29.3378 15.0159 30.0008 11.2542H26.0232C25.1598 14.3067 22.601 17.0817 20.1652 17.3438V11.2542H16.1875V21.9226C13.7208 21.3059 10.6067 18.3151 10.468 11.2542H6.24384Z" fill="#fff"/>
</svg>
