<svg width="37" height="37" viewBox="0 0 37 37" fill="none" xmlns="http://www.w3.org/2000/svg">
<path d="M35.5516 10.6451C34.6165 8.56762 33.2741 6.70246 31.5696 5.09508C29.8652 3.50287 27.8893 2.24426 25.6871 1.36475C23.4095 0.454918 20.9961 0 18.5074 0C16.0186 0 13.6053 0.454918 11.3277 1.36475C9.12548 2.24426 7.14955 3.4877 5.44513 5.09508C3.7407 6.70246 2.39829 8.56762 1.46312 10.6451C0.497782 12.7984 0 15.1033 0 17.4689C0 21.6086 1.53849 25.5816 4.35909 28.7357L2.85075 37L10.8752 33.4061C13.2734 34.4373 15.8225 34.9529 18.4923 34.9529C20.981 34.9529 23.3944 34.4979 25.672 33.5881C27.8742 32.7086 29.8501 31.4652 31.5545 29.8578C33.259 28.2504 34.6014 26.3852 35.5365 24.3078C36.5019 22.1545 36.9997 19.8496 36.9997 17.484C37.0148 15.1033 36.517 12.8135 35.5516 10.6451Z" fill="#3C3C3B"/>
<path d="M26.1578 20.9558C25.3692 20.5616 24.793 20.319 24.3836 20.1673C24.1258 20.0763 23.5193 19.8034 23.307 19.9702C22.6398 20.5161 21.927 22.0628 21.1688 22.3509C19.2885 21.987 17.5447 20.6981 16.1799 19.3788C15.5734 18.8026 14.4512 17.1649 14.2086 16.7251C14.1631 16.2702 14.9819 15.6636 15.1639 15.3149C16.1041 14.2534 15.3914 13.5862 15.2701 13.1464C15.0578 12.6915 14.6939 11.8727 14.3754 11.2054C14.1025 10.7657 14.0418 10.1136 13.5565 9.87101C11.4942 8.80954 10.3115 10.9325 9.82625 12.0395C6.89961 19.0907 24.4897 32.5108 28.0684 23.2608C28.2504 22.4571 28.1746 22.1538 27.9016 21.7899C27.3557 21.4108 26.7188 21.244 26.1578 20.9558Z" fill="#000"/>
</svg>
